<svg width="732" height="732" viewBox="0 0 732 732" fill="none" xmlns="http://www.w3.org/2000/svg">
<rect width="732" height="732" fill="#1E1E1E"/>
<path d="M655.843 0C681.315 0 706.287 0 731.598 0C731.598 244.022 731.598 487.728 731.598 731.824C487.897 731.824 244.074 731.824 0 731.824C0 488.015 0 244.308 0 6.10352e-05C218.542 6.10352e-05 436.943 6.1e-05 655.843 0ZM357.839 320.607C357.839 219.191 357.839 117.776 357.839 16.2762C301.904 16.2762 246.528 16.2762 191.068 16.2762C191.068 130.302 191.068 244.009 191.068 357.804C246.736 357.804 302.118 357.804 357.839 357.804C357.839 345.542 357.839 333.574 357.839 320.607ZM373.847 239.607C373.847 279.017 373.847 318.427 373.847 357.801C488.219 357.801 601.924 357.801 715.628 357.801C715.628 302.133 715.628 246.768 715.628 191.412C601.576 191.412 487.878 191.412 373.847 191.412C373.847 207.344 373.847 222.975 373.847 239.607ZM50.3428 374.111C38.9064 374.111 27.47 374.111 16.0615 374.111C16.0615 430.09 16.0615 485.455 16.0615 540.797C130.119 540.797 243.817 540.797 357.501 540.797C357.501 485.116 357.501 429.743 357.501 374.111C255.223 374.111 153.283 374.111 50.3428 374.111ZM540.901 702.6C540.901 593.206 540.901 483.812 540.901 374.451C484.863 374.451 429.482 374.451 374.165 374.451C374.165 488.509 374.165 602.226 374.165 715.894C429.86 715.894 485.237 715.894 540.901 715.894C540.901 711.554 540.901 707.576 540.901 702.6ZM174.776 248.607C174.776 171.194 174.776 93.7807 174.776 16.2901C121.476 16.2901 68.7681 16.2901 15.9985 16.2901C15.9985 130.319 15.9985 244.014 15.9985 357.789C69.0048 357.789 121.715 357.789 174.776 357.789C174.776 321.519 174.776 285.563 174.776 248.607ZM701.339 15.9566C592.274 15.9566 483.209 15.9566 374.182 15.9566C374.182 69.3876 374.182 122.113 374.182 174.774C488.242 174.774 601.967 174.774 715.624 174.774C715.624 121.718 715.624 68.9918 715.624 15.9565C710.961 15.9565 706.649 15.9565 701.339 15.9566ZM715.981 504.607C715.981 461.205 715.981 417.803 715.981 374.479C662.567 374.479 609.86 374.479 557.251 374.479C557.251 488.552 557.251 602.256 557.251 715.871C610.307 715.871 663.019 715.871 715.981 715.871C715.981 645.525 715.981 575.566 715.981 504.607ZM49.3428 716.257C152.076 716.257 254.809 716.257 357.504 716.257C357.504 662.827 357.504 610.101 357.504 557.439C243.444 557.439 129.719 557.439 16.0591 557.439C16.0591 610.495 16.0591 663.221 16.0591 716.257C27.0558 716.257 37.6993 716.257 49.3428 716.257ZM182.84 94.6069C182.84 68.8447 182.84 43.0824 182.84 17.3201C182.621 17.3221 182.401 17.3242 182.181 17.3262C182.181 130.513 182.181 243.7 182.181 356.886C182.401 356.886 182.621 356.886 182.84 356.886C182.84 269.793 182.84 182.7 182.84 94.6069ZM548.846 437.607C548.846 530.062 548.846 622.518 548.846 714.973C549.076 714.972 549.305 714.972 549.535 714.971C549.535 601.729 549.535 488.487 549.535 375.244C549.305 375.244 549.076 375.243 548.846 375.242C548.846 395.697 548.846 416.152 548.846 437.607Z" fill="#2F5CFF"/>
</svg>
